<svg xmlns="http://www.w3.org/2000/svg" width="32" height="32" viewBox="0 0 400 186">
  <path d="M202.344 0.153 C 202.287 0.244,201.674 0.377,200.981 0.448 C 198.125 0.738,193.638 2.147,190.715 3.671 C 187.447 5.376,184.535 7.467,181.887 10.012 C 176.082 15.589,172.803 21.942,171.175 30.762 C 170.855 32.496,170.743 38.572,171.007 39.826 C 171.120 40.361,171.282 41.259,171.366 41.822 C 171.729 44.232,172.527 45.684,173.297 45.333 C 173.895 45.061,173.895 45.050,173.423 41.723 C 173.035 38.992,172.922 33.033,173.222 31.134 C 173.621 28.610,174.666 24.799,175.364 23.327 C 175.509 23.020,176.079 21.805,176.631 20.625 C 180.379 12.619,187.724 6.083,196.116 3.287 C 197.359 2.873,199.387 2.424,202.520 1.872 C 203.923 1.624,208.489 1.611,209.537 1.852 C 209.965 1.950,211.069 2.169,211.989 2.338 C 220.720 3.944,229.119 9.814,233.566 17.418 C 234.255 18.597,234.286 18.622,234.917 18.520 C 235.912 18.358,235.958 18.186,235.332 16.947 C 231.093 8.549,221.748 1.962,211.772 0.340 C 210.173 0.081,202.483 -0.072,202.344 0.153 M202.974 8.184 C 196.785 8.812,191.004 12.285,186.949 17.813 C 186.524 18.392,186.108 18.894,186.025 18.928 C 185.942 18.962,185.874 19.068,185.874 19.164 C 185.874 19.260,185.678 19.650,185.438 20.032 C 183.113 23.734,181.708 27.324,179.276 35.781 C 179.011 36.701,178.547 38.206,178.244 39.126 C 176.254 45.173,174.724 49.916,174.376 51.115 C 174.154 51.882,173.880 52.760,173.768 53.067 C 173.655 53.374,173.527 53.875,173.484 54.182 C 173.440 54.489,173.240 55.283,173.040 55.948 C 172.609 57.382,171.570 61.972,171.379 63.290 C 171.304 63.801,171.101 64.972,170.927 65.892 C 170.204 69.710,170.021 70.836,169.766 73.048 C 169.111 78.721,169.001 81.902,169.243 88.076 C 169.389 91.813,169.669 92.126,169.903 88.812 C 170.099 86.028,170.399 82.708,170.630 80.761 C 170.733 79.893,170.902 78.450,171.006 77.556 C 171.109 76.661,171.268 75.511,171.360 75.000 C 171.451 74.489,171.622 73.443,171.740 72.677 C 171.858 71.910,172.028 71.032,172.118 70.725 C 172.208 70.418,172.336 69.833,172.403 69.424 C 172.964 65.950,174.753 59.297,176.253 55.112 C 176.765 53.680,177.543 51.506,177.982 50.279 C 178.420 49.052,179.045 47.337,179.371 46.468 C 180.056 44.643,181.561 40.386,182.987 36.245 C 183.533 34.661,184.200 32.834,184.470 32.185 C 184.859 31.252,184.936 30.837,184.841 30.201 C 184.659 28.990,185.494 26.600,187.240 23.327 C 188.884 20.247,189.751 19.051,191.855 16.961 C 195.548 13.292,196.738 12.597,202.323 10.851 C 205.029 10.004,210.949 10.517,214.405 11.896 C 214.610 11.978,215.070 12.150,215.428 12.279 C 215.785 12.409,217.134 13.044,218.424 13.692 C 220.547 14.758,221.747 15.129,221.747 14.718 C 221.747 14.342,217.340 10.967,216.849 10.967 C 216.748 10.967,216.533 10.855,216.372 10.718 C 216.210 10.582,215.785 10.360,215.428 10.226 C 215.070 10.091,214.526 9.879,214.219 9.753 C 213.665 9.526,212.584 9.161,211.338 8.780 C 209.579 8.241,205.366 7.941,202.974 8.184 M215.520 16.813 C 206.791 18.968,199.532 25.406,190.466 39.033 C 188.667 41.737,187.943 43.008,185.220 48.234 C 184.474 49.665,183.471 51.589,182.990 52.509 C 182.510 53.429,181.781 54.935,181.370 55.855 C 180.959 56.775,180.424 57.969,180.181 58.509 C 179.938 59.049,179.740 59.556,179.740 59.636 C 179.740 59.716,179.582 60.111,179.389 60.513 C 179.197 60.916,178.533 62.793,177.914 64.684 C 176.837 67.976,176.417 69.383,175.777 71.840 C 175.618 72.454,175.343 73.499,175.166 74.164 C 174.989 74.828,174.784 75.748,174.711 76.208 C 174.378 78.291,173.962 80.647,173.793 81.413 C 173.128 84.415,172.938 94.415,173.479 97.955 C 173.827 100.233,174.301 102.538,174.529 103.067 C 174.618 103.271,174.731 103.606,174.780 103.810 C 175.343 106.132,177.695 111.185,180.493 116.082 L 181.843 118.445 183.533 118.315 C 185.628 118.155,185.689 118.096,184.968 116.925 C 184.648 116.405,184.387 115.943,184.387 115.898 C 184.387 115.853,184.183 115.515,183.934 115.148 C 183.500 114.509,182.773 113.064,181.363 110.037 C 179.780 106.639,178.512 102.112,177.979 97.955 C 177.816 96.678,177.601 95.072,177.503 94.388 C 177.225 92.461,177.290 84.996,177.607 82.435 C 177.759 81.208,177.961 79.577,178.057 78.810 C 178.392 76.135,179.359 72.379,180.784 68.216 C 181.362 66.529,182.106 64.354,182.438 63.383 C 183.645 59.852,184.761 57.337,186.460 54.318 C 186.675 53.937,187.306 52.720,187.863 51.614 C 188.951 49.452,190.174 47.329,193.000 42.692 C 196.982 36.161,198.699 34.775,205.151 32.885 C 208.068 32.030,210.798 31.137,211.617 30.769 C 211.924 30.631,212.718 30.293,213.383 30.017 C 216.560 28.699,219.243 26.781,221.051 24.538 C 221.912 23.470,222.002 23.594,222.090 25.958 C 222.213 29.293,221.554 31.242,219.528 33.538 C 217.611 35.709,217.286 36.540,217.286 39.271 C 217.286 42.085,217.172 42.305,215.532 42.633 C 214.445 42.851,214.441 42.854,214.186 43.730 C 213.899 44.714,213.470 45.072,212.361 45.253 C 211.679 45.364,211.582 45.455,211.190 46.354 C 209.914 49.281,208.121 49.264,203.782 46.284 C 202.179 45.183,201.859 45.086,201.859 45.699 C 201.859 45.878,201.620 46.354,201.329 46.757 C 198.741 50.339,200.384 57.510,204.509 60.641 C 206.153 61.889,206.174 61.493,204.614 58.707 C 202.957 55.747,202.538 53.198,203.088 49.410 C 203.228 48.453,203.506 48.431,205.152 49.246 C 208.834 51.070,210.234 50.767,212.754 47.605 C 213.320 46.895,214.116 46.083,214.523 45.800 C 214.999 45.471,215.302 45.097,215.370 44.756 C 215.512 44.048,216.083 43.680,217.042 43.680 C 217.659 43.680,217.974 43.555,218.486 43.105 L 219.140 42.531 219.125 40.226 C 219.107 37.395,219.213 37.134,221.533 34.348 C 224.533 30.745,224.957 29.732,225.021 26.022 C 225.046 24.540,225.126 22.514,225.198 21.521 C 225.366 19.200,225.206 18.799,223.718 17.806 C 221.915 16.604,218.195 16.153,215.520 16.813" fill="#37426f" fill-rule="evenodd"/>
</svg>
